<svg t="1763715509669" class="icon" viewBox="0 0 1024 1024" version="1.1" xmlns="http://www.w3.org/2000/svg" p-id="7233" width="256" height="256"><path d="M576 938.688H362.688c-11.782 0-21.344 9.532-21.344 21.312v42.688h256V960c0-11.782-9.532-21.312-21.344-21.312z" fill="#CCD1D9" p-id="7234"></path><path d="M554.688 226.876V42.688H384v183.876c-111.624 35.876-192.438 140.532-192.438 264.124C191.562 643.812 315.688 768 468.876 768s277.312-124.188 277.312-277.312c0-123.25-80.344-227.656-191.5-263.812z" fill="#E6E9ED" p-id="7235"></path><path d="M362.688 128c-11.782 0-21.344 9.562-21.344 21.312 0 11.812 9.562 21.376 21.344 21.376h512V128h-512z" fill="#AAB2BD" p-id="7236"></path><path d="M576 42.688H362.688c-11.782 0-21.344 9.532-21.344 21.312s9.562 21.312 21.344 21.312H576c11.812 0 21.344-9.532 21.344-21.312S587.812 42.688 576 42.688zM874.688 0c-11.812 0-21.344 9.562-21.344 21.312v960H896v-960C896 9.562 886.468 0 874.688 0z" fill="#CCD1D9" p-id="7237"></path><path d="M1002.688 981.312H21.344C9.562 981.312 0 990.876 0 1002.688 0 1014.438 9.562 1024 21.344 1024h981.344c11.782 0 21.312-9.562 21.312-21.312 0-11.812-9.532-21.376-21.312-21.376z" fill="#434A54" p-id="7238"></path><path d="M468.876 768c153.188 0 277.312-124.188 277.312-277.312 0-9.312-0.438-18.5-1.344-27.562-15.156 42.624-66.062 81.124-132.094 94.938-8.25 1.75-17.812 2.718-28.312 2.718-42.312 0-99.438-15.968-141.468-63.844-48.968-55.782-113.094-74.624-158.188-74.624-9.844 0-18.782 0.906-26.406 2.5-23.406 4.906-44.876 12.906-63.562 23.062a284.492 284.492 0 0 0-3.25 42.812C191.562 643.812 315.688 768 468.876 768z" fill="#ED5565" p-id="7239"></path><path d="M469.344 906.688c-17.644 0-32-14.356-32-32 0-23.45 16.856-47.294 32.006-63.49 15.258 16.262 31.994 40.002 31.994 63.49 0 17.644-14.356 32-32 32z" fill="#FFCE54" p-id="7240"></path><path d="M469.344 768s-64 47.562-64 106.688c0 35.312 28.656 64 64 64s64-28.688 64-64c0-59.126-64-106.688-64-106.688z" fill="#F6BB42" p-id="7241"></path></svg>